<svg width="761" height="736" viewBox="0 0 761 736" fill="none" xmlns="http://www.w3.org/2000/svg">
<path d="M755.345 51.5143C773.345 97.5143 738.512 153.014 718.845 175.014C705.345 182.014 673.545 207.514 654.345 253.514C630.345 311.014 672.345 414.514 667.845 458.514C663.345 502.514 631.345 611.5 580.345 669C529.345 726.5 358.56 744.708 293.5 731.5C227 718 110.5 651.5 63.5 588C16.5 524.5 2.08616e-05 446 0 364.5C-2.09087e-05 282.816 93.4999 158.514 207.845 158.514C327.415 158.514 504.845 78.5143 580.345 30.0143C655.845 -18.4857 732.845 -5.9857 755.345 51.5143Z" fill="#F1FFFC"/>
</svg>
